<svg version="1.1" xmlns="http://www.w3.org/2000/svg" xmlns:xlink="http://www.w3.org/1999/xlink" width="26.69231" height="26.69231" viewBox="0,0,26.69231,26.69231"><g transform="translate(-226.65384,-166.65385)"><g data-paper-data="{&quot;isPaintingLayer&quot;:true}" stroke="none" stroke-linecap="butt" stroke-linejoin="miter" stroke-miterlimit="10" stroke-dasharray="" stroke-dashoffset="0" style="mix-blend-mode: normal"><path d="M226.65385,193.34617v-26.69231h26.69231v26.69231z" fill="#fff545" fill-rule="nonzero" stroke-width="0"/><path d="M249.80652,180.75434h-17.79205l4.74787,4.74636c0.29496,0.29496 0.29496,0.77319 0,1.06816c-0.29496,0.29496 -0.77319,0.29496 -1.06816,0l-6.03478,-6.03478c-0.14188,-0.14152 -0.22162,-0.33368 -0.22162,-0.53408c0,-0.2004 0.07974,-0.39256 0.22162,-0.53408l6.03478,-6.03478c0.29496,-0.29496 0.77319,-0.29496 1.06816,0c0.29496,0.29496 0.29496,0.77319 0,1.06816l-4.74787,4.74636h17.79205c0.41661,0 0.75435,0.33773 0.75435,0.75435c0,0.41661 -0.33773,0.75435 -0.75435,0.75435z" fill="#000000" fill-rule="evenodd" stroke-width="1"/></g></g></svg>