<svg version="1.1" xmlns="http://www.w3.org/2000/svg" xmlns:xlink="http://www.w3.org/1999/xlink" width="26.69231" height="26.69231" viewBox="0,0,26.69231,26.69231"><g transform="translate(-226.65384,-166.65384)"><g data-paper-data="{&quot;isPaintingLayer&quot;:true}" fill-rule="nonzero" stroke="none" stroke-linecap="butt" stroke-linejoin="miter" stroke-miterlimit="10" stroke-dasharray="" stroke-dashoffset="0" style="mix-blend-mode: normal"><path d="M226.65384,193.34616v-26.69231h26.69231v26.69231z" fill="#fff545" stroke-width="0"/><path d="M248.17925,169.28133l0.22166,-0.22166c0.70166,-0.70124 1.83896,-0.70092 2.5402,0.00074c0.70124,0.70166 0.70092,1.83896 -0.00074,2.5402l-0.22166,0.22018c0.78725,0.8829 0.74873,2.22674 -0.08777,3.06312l-15.31114,15.31263c-0.09572,0.09523 -0.21555,0.16259 -0.34663,0.19489l-5.9507,1.48767c-0.25331,0.06308 -0.52113,-0.01123 -0.70571,-0.19582c-0.18459,-0.18459 -0.2589,-0.45242 -0.19582,-0.70571l1.48767,-5.9507c0.03255,-0.13056 0.09991,-0.24984 0.19489,-0.34514l14.34415,-14.34415c-0.29618,-0.20847 -0.69947,-0.17328 -0.95509,0.08331l-4.89742,4.89891c-0.29086,0.29086 -0.76242,0.29086 -1.05327,0c-0.29086,-0.29086 -0.29086,-0.76242 0,-1.05327l4.9004,-4.89742c0.83697,-0.837 2.18187,-0.87487 3.06461,-0.08629c0.84625,-0.7563 2.12537,-0.75694 2.97237,-0.00149z" fill="#000000" stroke-width="1"/></g></g></svg>