<svg version="1.1" xmlns="http://www.w3.org/2000/svg" xmlns:xlink="http://www.w3.org/1999/xlink" width="26.19231" height="26.19231" viewBox="0,0,26.19231,26.19231"><g transform="translate(-226.90385,-166.90386)"><g data-paper-data="{&quot;isPaintingLayer&quot;:true}" fill-rule="nonzero" stroke="none" stroke-linecap="butt" stroke-linejoin="miter" stroke-miterlimit="10" stroke-dasharray="" stroke-dashoffset="0" style="mix-blend-mode: normal"><path d="M226.90386,193.09618v-26.19231h26.19231v26.19231z" fill="#c7c036" stroke-width="0"/><path d="M248.17926,169.28133l0.22167,-0.22167c0.70166,-0.70125 1.83895,-0.70092 2.5402,0.00074c0.70125,0.70166 0.70092,1.83896 -0.00074,2.54021l-0.22167,0.22017c0.78725,0.8829 0.74873,2.22673 -0.08777,3.06312l-15.31114,15.31263c-0.09572,0.09522 -0.21555,0.16259 -0.34663,0.19488l-5.9507,1.48767c-0.25331,0.06307 -0.52113,-0.01123 -0.70571,-0.19582c-0.18459,-0.18459 -0.25889,-0.45242 -0.19582,-0.70571l1.48767,-5.95069c0.03255,-0.13056 0.09991,-0.24984 0.19488,-0.34514l14.34416,-14.34415c-0.29618,-0.20847 -0.69948,-0.17328 -0.95509,0.08331l-4.89742,4.89891c-0.29085,0.29085 -0.76242,0.29085 -1.05328,0c-0.29085,-0.29085 -0.29085,-0.76242 0,-1.05327l4.9004,-4.89742c0.83696,-0.837 2.18186,-0.87487 3.06461,-0.08629c0.84625,-0.7563 2.12537,-0.75695 2.97237,-0.00149z" fill="#000000" stroke-width="1"/></g></g></svg>