<svg version="1.1" xmlns="http://www.w3.org/2000/svg" xmlns:xlink="http://www.w3.org/1999/xlink" width="26.69231" height="26.69231" viewBox="0,0,26.69231,26.69231"><g transform="translate(-226.65386,-166.65388)"><g data-paper-data="{&quot;isPaintingLayer&quot;:true}" fill-rule="nonzero" stroke="none" stroke-linecap="butt" stroke-linejoin="miter" stroke-miterlimit="10" stroke-dasharray="" stroke-dashoffset="0" style="mix-blend-mode: normal"><path d="M226.65386,193.3462v-26.69231h26.69231v26.69231z" fill="#fff545" stroke-width="0"/><g fill="#000000" stroke-width="1"><path d="M232.73438,171.52343c-0.66879,0 -1.21093,0.54215 -1.21093,1.21095v14.53125c0,0.66879 0.54215,1.21095 1.21094,1.21095h14.53125c0.66879,0 1.21095,-0.54215 1.21095,-1.21094v-14.53125c0,-0.66879 -0.54215,-1.21093 -1.21094,-1.21093zM247.26563,170.3125c1.33757,0 2.42188,1.08431 2.42188,2.42188v14.53125c0,1.33757 -1.08431,2.42188 -2.42187,2.42188h-14.53125c-1.33757,0 -2.42187,-1.08431 -2.42187,-2.42187v-14.53125c0,-1.33757 1.08431,-2.42187 2.42188,-2.42187z"/><path d="M240,175.15625c0.33438,0 0.60547,0.27109 0.60547,0.60548v3.63282h3.63282c0.33438,0 0.60547,0.27108 0.60547,0.60547c0,0.33438 -0.27108,0.60547 -0.60547,0.60547h-3.63281v3.63282c0,0.33438 -0.27109,0.60547 -0.60547,0.60547c-0.33438,0 -0.60547,-0.27108 -0.60547,-0.60547v-3.6328h-3.63281c-0.33438,0 -0.60546,-0.2711 -0.60546,-0.60548c0,-0.33438 0.27109,-0.60547 0.60546,-0.60547h3.63282v-3.6328c0,-0.33438 0.27108,-0.60548 0.60547,-0.60548z"/></g></g></g></svg>