<svg version="1.1" xmlns="http://www.w3.org/2000/svg" xmlns:xlink="http://www.w3.org/1999/xlink" width="26.19231" height="26.19231" viewBox="0,0,26.19231,26.19231"><g transform="translate(-226.90385,-166.90385)"><g data-paper-data="{&quot;isPaintingLayer&quot;:true}" fill-rule="nonzero" stroke="none" stroke-linecap="butt" stroke-linejoin="miter" stroke-miterlimit="10" stroke-dasharray="" stroke-dashoffset="0" style="mix-blend-mode: normal"><path d="M226.90385,193.09616v-26.19231h26.19231v26.19231z" fill="#c7c036" stroke-width="0"/><g fill="#000000" stroke-width="1"><path d="M232.73438,171.52343c-0.66878,0 -1.21093,0.54215 -1.21093,1.21094v14.53125c0,0.66878 0.54215,1.21094 1.21094,1.21094h14.53125c0.66878,0 1.21094,-0.54215 1.21094,-1.21093v-14.53125c0,-0.66878 -0.54215,-1.21093 -1.21093,-1.21093zM247.26563,170.3125c1.33757,0 2.42188,1.08431 2.42188,2.42188v14.53125c0,1.33757 -1.08431,2.42188 -2.42187,2.42188h-14.53125c-1.33757,0 -2.42187,-1.08431 -2.42187,-2.42187v-14.53125c0,-1.33757 1.08431,-2.42187 2.42187,-2.42187z"/><path d="M240,175.15625c0.33439,0 0.60547,0.27109 0.60547,0.60548v3.63282h3.63282c0.33439,0 0.60547,0.27108 0.60547,0.60547c0,0.33439 -0.27108,0.60548 -0.60547,0.60548h-3.63281v3.63282c0,0.33439 -0.27109,0.60547 -0.60547,0.60547c-0.33439,0 -0.60547,-0.27108 -0.60547,-0.60547v-3.63281h-3.63281c-0.33439,0 -0.60547,-0.27109 -0.60547,-0.60548c0,-0.33439 0.27109,-0.60547 0.60547,-0.60547h3.63282v-3.63281c0,-0.33439 0.27108,-0.60548 0.60547,-0.60548z"/></g></g></g></svg>