<svg version="1.1" xmlns="http://www.w3.org/2000/svg" xmlns:xlink="http://www.w3.org/1999/xlink" width="26.19231" height="26.19231" viewBox="0,0,26.19231,26.19231"><g transform="translate(-226.90385,-166.90385)"><g data-paper-data="{&quot;isPaintingLayer&quot;:true}" stroke="none" stroke-linecap="butt" stroke-linejoin="miter" stroke-miterlimit="10" stroke-dasharray="" stroke-dashoffset="0" style="mix-blend-mode: normal"><path d="M226.90385,193.09616v-26.19231h26.19231v26.19231z" fill="#c7c036" fill-rule="nonzero" stroke-width="0"/><path d="M241.38401,181.51402c-0.572,0 -0.99,-0.407 -0.99,-1.237v-0.553c0,-0.827 0.418,-1.234 0.99,-1.234c0.565,0 0.987,0.407 0.987,1.234v0.553c0,0.829 -0.422,1.237 -0.987,1.237zM244.18302,180.03703v-1.485h0.774c0.463,0 0.735,0.269 0.735,0.741c0,0.472 -0.272,0.744 -0.735,0.744z" fill="#000000" fill-rule="nonzero" stroke-width="1"/><path d="M243.10703,172.00003c0.13235,0.00003 0.25929,0.05253 0.353,0.146l4.394,4.394c0.09347,0.09371 0.14597,0.22065 0.146,0.353v6.214c-0.00003,0.13235 -0.05253,0.25929 -0.146,0.353l-4.394,4.394c-0.09371,0.09347 -0.22065,0.14597 -0.353,0.146h-6.214c-0.13235,-0.00003 -0.25929,-0.05253 -0.353,-0.146l-4.394,-4.394c-0.09347,-0.09371 -0.14597,-0.22065 -0.146,-0.353v-6.214c0.00003,-0.13235 0.05253,-0.25929 0.146,-0.353l4.394,-4.394c0.09371,-0.09347 0.22065,-0.14597 0.353,-0.146zM235.16003,182.07903c0.97,0 1.544,-0.492 1.544,-1.228c0,-0.623 -0.387,-0.946 -1.06,-1.11l-0.654,-0.161c-0.357,-0.085 -0.553,-0.261 -0.553,-0.522c0,-0.354 0.298,-0.6 0.77,-0.6c0.445,0 0.733,0.222 0.797,0.542h0.645c-0.05,-0.612 -0.583,-1.087 -1.436,-1.087c-0.847,0 -1.444,0.478 -1.444,1.184c0,0.568 0.368,0.931 0.978,1.078l0.656,0.164c0.434,0.105 0.637,0.269 0.637,0.572c0,0.374 -0.306,0.62 -0.83,0.62c-0.495,0 -0.826,-0.237 -0.891,-0.583h-0.653c0.047,0.639 0.563,1.132 1.494,1.132zM238.58701,178.56802h1.172v-0.568h-3.006v0.57h1.169v3.43h0.665v-3.43zM243.04402,179.73001c0,-1.133 -0.635,-1.807 -1.66,-1.807c-1.026,0 -1.664,0.671 -1.664,1.807v0.544c0,1.131 0.638,1.805 1.664,1.805c1.025,0 1.661,-0.674 1.661,-1.805v-0.544zM243.52002,178.00103v3.999h0.665v-1.419h0.865c0.82,0 1.321,-0.542 1.321,-1.289c0,-0.742 -0.496,-1.292 -1.316,-1.292h-1.535z" fill="#ff0000" fill-rule="evenodd" stroke-width="1"/><path d="M233.32505,183.12032v-5.875h13.375v5.875z" fill="#ff0000" fill-rule="nonzero" stroke-width="0"/></g></g></svg>