<svg version="1.1" xmlns="http://www.w3.org/2000/svg" xmlns:xlink="http://www.w3.org/1999/xlink" width="554.60001" height="398.79441" viewBox="0,0,554.60001,398.79441"><g transform="translate(16.89997,7.53742)"><g data-paper-data="{&quot;isPaintingLayer&quot;:true}" fill-rule="nonzero" stroke-miterlimit="10" stroke-dasharray="" stroke-dashoffset="0" style="mix-blend-mode: normal"><path d="M-3.99995,391.25699v-381.02568h488v381.02568z" fill="#fffae2" stroke="none" stroke-width="0" stroke-linecap="butt" stroke-linejoin="miter"/><path d="M-16.89997,72.46258v-80h509v80z" fill="#fff545" stroke="none" stroke-width="0" stroke-linecap="butt" stroke-linejoin="miter"/><g><path d="M21.06023,40.5276c0,-0.56089 0.15734,-1.36661 1.02766,-1.54847c1.25564,-0.26341 2.69228,1.00805 3.08301,1.38214c-0.0289,0.14886 0.4597,3.15252 0.4597,3.41292c0,0.88044 -0.23529,0.91533 -0.32662,0.9298c-0.85973,0.12515 -3.15091,-2.28412 -4.20257,-3.68586c-0.01446,-0.07608 -0.04118,-0.24541 -0.04118,-0.49052z" fill="#ffc93e" stroke="#603813" stroke-width="1.32684" stroke-linecap="butt" stroke-linejoin="miter"/><path d="M17.57882,44.73641c-0.62328,-0.67621 -0.71218,-2.50877 -0.71218,-3.2883c0,-0.33078 0.0169,-0.55078 0.01771,-0.5576l0.00111,-0.01693c0,0 -0.00194,-0.07061 -0.00194,-0.09651c0,-1.46804 1.3516,-1.97763 1.58065,-2.05425c0.78254,0.00954 2.13521,0.3798 2.45806,0.93851c0.03272,0.05614 0.06325,0.12704 0.06325,0.21783c0,0.07965 -0.02371,0.17615 -0.09132,0.29259c-0.03136,0.05343 -0.58706,1.36661 -1.05713,2.37355l-0.33591,0.93116c-0.25141,0.8136 -0.64704,1.62779 -1.0776,1.62779c-0.34026,0.00054 -0.6165,-0.11996 -0.84472,-0.36784z" fill="#ffc93e" stroke="#603813" stroke-width="1.32684" stroke-linecap="butt" stroke-linejoin="miter"/><path d="M35.20684,34.09379l-0.60774,-1.07238c-0.66557,-1.15909 -1.4345,-2.22033 -2.11261,-3.15449c-0.87173,-1.20323 -1.63027,-2.44823 -1.88138,-3.32785c-0.09054,-0.31684 -0.04689,-0.61921 0.08343,-0.78636c0.01253,-0.045 0.14397,-0.11668 0.23666,-0.13579c1.11684,-0.24129 5.73987,2.4128 6.89324,3.83148c1.68969,2.07772 2.36533,4.99222 1.98853,6.46022c-0.15462,0.59985 -0.50035,1.02494 -1.00095,1.22728c-1.27963,0.51695 -2.12132,-0.41609 -3.59918,-3.04212z" fill="#ffc93e" stroke="#603813" stroke-width="1.32684" stroke-linecap="butt" stroke-linejoin="miter"/><path d="M17.00871,13.61183c1.6412,-0.8919 -0.05261,-4.25005 -1.69133,-7.49852c-0.89568,-1.77617 -2.49295,-4.77599 -1.97382,-5.05711c1.00423,-0.54424 5.80176,5.11737 7.74668,7.39927l1.98253,2.25823c0,0 1.41733,1.73877 2.50195,2.88561c0.01911,0.01989 1.04458,-0.13933 1.75298,-0.72804c0.5775,-0.48177 0.50112,-1.02083 0.68492,-2.15457c0.16875,-1.04159 0.35202,-2.9265 0.91098,-2.93605c0.84197,-0.01282 1.39549,3.45764 1.61115,4.74325l0.11915,0.68768c0.28277,1.52907 1.75787,6.12649 1.82112,6.32143c0.02018,0.04743 0.05347,0.10909 0.05347,0.10909l0.01225,0.02482l0.0169,0.02072c2.27787,2.82507 3.97192,6.25053 3.97192,9.4598c0,6.79589 -5.95716,11.57977 -13.93096,11.57977c-1.47893,0 -2.9254,-0.20722 -4.29936,-0.61461l-0.0739,-0.02125c0,0 -2.15675,-0.18132 -4.91586,3.44539c-0.55349,0.72801 -0.50417,1.40668 -1.28425,1.19781c-0.26012,-0.06955 -0.45128,-0.2607 -0.60721,-0.60778c-0.37302,-0.82779 -0.09765,-2.78907 0.35826,-4.04224l0.07172,-0.19687l-0.16469,-0.13032c-0.04036,-0.03219 -4.51534,-3.29296 -4.9674,-7.96563c-0.39402,-4.07303 1.66351,-6.39204 2.51723,-7.66649l0.49052,-0.8169c0.61921,-1.50647 -0.54617,-3.60162 -1.57466,-5.45028c-0.61403,-1.10373 -1.60519,-2.71435 -1.38132,-3.09283c0.2484,-0.41934 1.1362,0.02699 2.03271,0.45456c0.72693,0.34738 1.42633,0.83815 1.91192,0.51449c0.505,-0.33619 0.17369,-1.18063 -0.28519,-2.34955c-0.43163,-1.09773 -1.24882,-2.83186 -0.93498,-3.5476c0.08643,-0.19687 0.23805,-0.33512 0.46352,-0.42263c0.83384,-0.32284 2.02588,1.08166 2.99087,2.18022c1.1771,1.34125 2.51207,2.86107 4.06214,2.01717z" fill="#ffc93e" stroke="#603813" stroke-width="1.32684" stroke-linecap="round" stroke-linejoin="round"/><g stroke="none" stroke-width="0.66342" stroke-linecap="butt" stroke-linejoin="miter"><path d="M18.38485,29.645v0c0,-1.22642 0.99412,-2.22111 2.22086,-2.22164c1.22617,0 2.22029,0.99522 2.22029,2.22164c0,1.22563 -0.99387,2.21951 -2.22029,2.21951c-1.22646,0 -2.22086,-0.99388 -2.22086,-2.21951z" fill="#ffffff"/><path d="M20.90454,28.0221c0.43106,0 0.82178,0.17508 1.10455,0.45809c0.28301,0.28277 0.45806,0.67346 0.45806,1.10455c0,0.4311 -0.17505,0.82183 -0.45806,1.10455c-0.28277,0.28306 -0.67351,0.45809 -1.10455,0.45809c-0.4311,0 -0.82183,-0.17505 -1.10455,-0.45809c-0.28306,-0.28273 -0.45809,-0.67346 -0.45809,-1.10455c0,-0.4311 0.17505,-0.82178 0.45809,-1.10455c0.28273,-0.28301 0.67346,-0.45809 1.10455,-0.45809z" fill="#603813"/></g><g stroke="none" stroke-width="0.66342" stroke-linecap="butt" stroke-linejoin="miter"><path d="M29.082,29.645v0c0,-1.22642 0.99412,-2.22111 2.22112,-2.22164c1.22617,0 2.22033,0.99522 2.22033,2.22164c0,1.22563 -0.9947,2.21951 -2.22033,2.21951c-1.22699,0 -2.22112,-0.99388 -2.22112,-2.21951z" fill="#ffffff"/><path d="M30.0388,29.58474v0c0,-0.86272 0.69911,-1.56265 1.56237,-1.56265c0.86269,0 1.56261,0.70021 1.56261,1.56265c0,0.86355 -0.69993,1.56208 -1.56261,1.56208c-0.86326,0 -1.56237,-0.69911 -1.56237,-1.56208z" fill="#603813"/></g><path d="M3.05243,38.21727c-0.4551,-0.29065 -0.71739,-0.77054 -0.75964,-1.3895c-0.10279,-1.51354 1.09502,-4.25465 3.13533,-5.98823c1.39332,-1.18392 6.42396,-2.94751 7.47756,-2.50663c0.08697,0.03654 0.20366,0.13037 0.20722,0.1778c0.09843,0.18757 0.08532,0.49216 -0.06165,0.78718c-0.40734,0.81908 -1.38075,1.9051 -2.45834,2.92733c-0.83761,0.79726 -1.78677,1.69758 -2.65245,2.71653l-0.79401,0.94069c-1.93239,2.31276 -2.93168,3.07784 -4.09402,2.33483z" fill="#ffc93e" stroke="#603813" stroke-width="1.32684" stroke-linecap="butt" stroke-linejoin="miter"/><path d="M28.01862,36.63366c0,0 -2.02129,0.00161 -3.43669,-1.21145" fill="none" stroke="#603813" stroke-width="1.32684" stroke-linecap="round" stroke-linejoin="round"/></g><text transform="translate(40.47723,20.43387) scale(0.47711,0.47711)" font-size="40" xml:space="preserve" fill="#000000" fill-rule="nonzero" stroke="none" stroke-width="1" stroke-linecap="butt" stroke-linejoin="miter" stroke-miterlimit="10" stroke-dasharray="" stroke-dashoffset="0" font-family="Sans Serif" font-weight="normal" text-anchor="start" style="mix-blend-mode: normal"><tspan x="0" dy="0">Gobo Scratch</tspan></text><path d="M535.70004,191.8282v-1h2v1z" fill="#847f24" stroke="none" stroke-width="0" stroke-linecap="butt" stroke-linejoin="miter"/><text transform="translate(50.47723,39.43386) scale(0.47711,0.47711)" font-size="40" xml:space="preserve" fill="#000000" fill-rule="nonzero" stroke="none" stroke-width="1" stroke-linecap="butt" stroke-linejoin="miter" stroke-miterlimit="10" stroke-dasharray="" stroke-dashoffset="0" font-family="Sans Serif" font-weight="normal" text-anchor="start" style="mix-blend-mode: normal"><tspan x="0" dy="0">v1.16.2</tspan></text></g></g></svg>